<mxfile host="app.diagrams.net" modified="2022-08-08T03:34:23.241Z" agent="5.0 (Macintosh; Intel Mac OS X 10_15_7) AppleWebKit/537.36 (KHTML, like Gecko) Chrome/103.0.0.0 Safari/537.36" etag="YLfi3GaAjsOid_enxo3n" version="20.1.1" type="github">
  <diagram id="nBP5FJJqFruhItfetFmz" name="Page-1">
    <mxGraphModel dx="2076" dy="809" grid="1" gridSize="10" guides="1" tooltips="1" connect="1" arrows="1" fold="1" page="1" pageScale="1" pageWidth="827" pageHeight="1169" math="0" shadow="0">
      <root>
        <mxCell id="0" />
        <mxCell id="1" parent="0" />
        <mxCell id="qozwdUGB5FvsB3uEtykQ-3" value="" style="edgeStyle=orthogonalEdgeStyle;rounded=0;orthogonalLoop=1;jettySize=auto;html=1;" edge="1" parent="1" source="qozwdUGB5FvsB3uEtykQ-1" target="qozwdUGB5FvsB3uEtykQ-2">
          <mxGeometry relative="1" as="geometry" />
        </mxCell>
        <mxCell id="qozwdUGB5FvsB3uEtykQ-4" value="&lt;b&gt;接出&lt;/b&gt;" style="edgeLabel;html=1;align=center;verticalAlign=middle;resizable=0;points=[];" vertex="1" connectable="0" parent="qozwdUGB5FvsB3uEtykQ-3">
          <mxGeometry x="-0.1" y="-1" relative="1" as="geometry">
            <mxPoint as="offset" />
          </mxGeometry>
        </mxCell>
        <mxCell id="qozwdUGB5FvsB3uEtykQ-1" value="crowd" style="rounded=0;whiteSpace=wrap;html=1;" vertex="1" parent="1">
          <mxGeometry x="-90" y="290" width="110" height="50" as="geometry" />
        </mxCell>
        <mxCell id="qozwdUGB5FvsB3uEtykQ-11" value="" style="edgeStyle=orthogonalEdgeStyle;rounded=0;orthogonalLoop=1;jettySize=auto;html=1;fontColor=#000000;dashed=1;" edge="1" parent="1" source="qozwdUGB5FvsB3uEtykQ-2" target="qozwdUGB5FvsB3uEtykQ-10">
          <mxGeometry relative="1" as="geometry" />
        </mxCell>
        <mxCell id="qozwdUGB5FvsB3uEtykQ-14" value="创建" style="edgeLabel;html=1;align=center;verticalAlign=middle;resizable=0;points=[];fontColor=#000000;" vertex="1" connectable="0" parent="qozwdUGB5FvsB3uEtykQ-11">
          <mxGeometry x="-0.0638" y="1" relative="1" as="geometry">
            <mxPoint as="offset" />
          </mxGeometry>
        </mxCell>
        <mxCell id="qozwdUGB5FvsB3uEtykQ-2" value="TAB/VG/PR/银河&lt;br&gt;....." style="rounded=0;whiteSpace=wrap;html=1;" vertex="1" parent="1">
          <mxGeometry x="100" y="290" width="110" height="50" as="geometry" />
        </mxCell>
        <mxCell id="qozwdUGB5FvsB3uEtykQ-5" value="" style="endArrow=classic;html=1;rounded=0;fontStyle=1" edge="1" parent="1">
          <mxGeometry width="50" height="50" relative="1" as="geometry">
            <mxPoint x="490" y="104.5" as="sourcePoint" />
            <mxPoint x="560" y="104.5" as="targetPoint" />
          </mxGeometry>
        </mxCell>
        <mxCell id="qozwdUGB5FvsB3uEtykQ-6" value="" style="endArrow=classic;html=1;rounded=0;dashed=1;fontStyle=1" edge="1" parent="1">
          <mxGeometry width="50" height="50" relative="1" as="geometry">
            <mxPoint x="490" y="144.5" as="sourcePoint" />
            <mxPoint x="560" y="144.5" as="targetPoint" />
          </mxGeometry>
        </mxCell>
        <mxCell id="qozwdUGB5FvsB3uEtykQ-7" value="同步" style="text;html=1;strokeColor=none;fillColor=none;align=center;verticalAlign=middle;whiteSpace=wrap;rounded=0;fontStyle=1" vertex="1" parent="1">
          <mxGeometry x="560" y="90" width="60" height="30" as="geometry" />
        </mxCell>
        <mxCell id="qozwdUGB5FvsB3uEtykQ-8" value="异步" style="text;html=1;strokeColor=none;fillColor=none;align=center;verticalAlign=middle;whiteSpace=wrap;rounded=0;fontStyle=1;fontColor=#FF0000;" vertex="1" parent="1">
          <mxGeometry x="560" y="130" width="60" height="30" as="geometry" />
        </mxCell>
        <mxCell id="qozwdUGB5FvsB3uEtykQ-9" value="&lt;font style=&quot;&quot; color=&quot;#000000&quot;&gt;字典&lt;/font&gt;" style="rounded=0;whiteSpace=wrap;html=1;fontColor=#333333;fillColor=#f5f5f5;strokeColor=#666666;" vertex="1" parent="1">
          <mxGeometry x="600" y="250" width="70" height="276" as="geometry" />
        </mxCell>
        <mxCell id="qozwdUGB5FvsB3uEtykQ-13" value="" style="edgeStyle=orthogonalEdgeStyle;rounded=0;orthogonalLoop=1;jettySize=auto;html=1;fontColor=#000000;" edge="1" parent="1" source="qozwdUGB5FvsB3uEtykQ-10" target="qozwdUGB5FvsB3uEtykQ-12">
          <mxGeometry relative="1" as="geometry" />
        </mxCell>
        <mxCell id="qozwdUGB5FvsB3uEtykQ-10" value="字典构建任务" style="rounded=0;whiteSpace=wrap;html=1;" vertex="1" parent="1">
          <mxGeometry x="304" y="290" width="110" height="50" as="geometry" />
        </mxCell>
        <mxCell id="qozwdUGB5FvsB3uEtykQ-12" value="人群bitmap构建" style="rounded=0;whiteSpace=wrap;html=1;" vertex="1" parent="1">
          <mxGeometry x="304" y="460" width="110" height="50" as="geometry" />
        </mxCell>
        <mxCell id="qozwdUGB5FvsB3uEtykQ-15" value="" style="endArrow=classic;html=1;rounded=0;fontColor=#000000;entryX=0;entryY=0.25;entryDx=0;entryDy=0;exitX=1;exitY=0.5;exitDx=0;exitDy=0;" edge="1" parent="1" source="qozwdUGB5FvsB3uEtykQ-10" target="qozwdUGB5FvsB3uEtykQ-9">
          <mxGeometry width="50" height="50" relative="1" as="geometry">
            <mxPoint x="360" y="240" as="sourcePoint" />
            <mxPoint x="410" y="190" as="targetPoint" />
          </mxGeometry>
        </mxCell>
        <mxCell id="qozwdUGB5FvsB3uEtykQ-17" value="更新（人群包+特征粒度）" style="edgeLabel;html=1;align=center;verticalAlign=middle;resizable=0;points=[];fontColor=#000000;" vertex="1" connectable="0" parent="qozwdUGB5FvsB3uEtykQ-15">
          <mxGeometry x="0.0146" y="1" relative="1" as="geometry">
            <mxPoint as="offset" />
          </mxGeometry>
        </mxCell>
        <mxCell id="qozwdUGB5FvsB3uEtykQ-18" value="" style="endArrow=classic;html=1;rounded=0;fontColor=#000000;entryX=1;entryY=0.5;entryDx=0;entryDy=0;exitX=0;exitY=0.75;exitDx=0;exitDy=0;" edge="1" parent="1" source="qozwdUGB5FvsB3uEtykQ-9" target="qozwdUGB5FvsB3uEtykQ-12">
          <mxGeometry width="50" height="50" relative="1" as="geometry">
            <mxPoint x="424" y="325" as="sourcePoint" />
            <mxPoint x="610" y="324" as="targetPoint" />
          </mxGeometry>
        </mxCell>
        <mxCell id="qozwdUGB5FvsB3uEtykQ-19" value="读取" style="edgeLabel;html=1;align=center;verticalAlign=middle;resizable=0;points=[];fontColor=#000000;" vertex="1" connectable="0" parent="qozwdUGB5FvsB3uEtykQ-18">
          <mxGeometry x="0.0146" y="1" relative="1" as="geometry">
            <mxPoint as="offset" />
          </mxGeometry>
        </mxCell>
        <mxCell id="qozwdUGB5FvsB3uEtykQ-21" value="Redis" style="shape=cylinder3;whiteSpace=wrap;html=1;boundedLbl=1;backgroundOutline=1;size=15;fontColor=#000000;" vertex="1" parent="1">
          <mxGeometry x="329" y="630" width="60" height="80" as="geometry" />
        </mxCell>
        <mxCell id="qozwdUGB5FvsB3uEtykQ-22" value="" style="endArrow=classic;html=1;rounded=0;fontColor=#000000;entryX=0.5;entryY=0;entryDx=0;entryDy=0;exitX=0.5;exitY=1;exitDx=0;exitDy=0;entryPerimeter=0;" edge="1" parent="1" source="qozwdUGB5FvsB3uEtykQ-12" target="qozwdUGB5FvsB3uEtykQ-21">
          <mxGeometry width="50" height="50" relative="1" as="geometry">
            <mxPoint x="610" y="467" as="sourcePoint" />
            <mxPoint x="424" y="495" as="targetPoint" />
          </mxGeometry>
        </mxCell>
        <mxCell id="qozwdUGB5FvsB3uEtykQ-23" value="Pipeline写入" style="edgeLabel;html=1;align=center;verticalAlign=middle;resizable=0;points=[];fontColor=#000000;" vertex="1" connectable="0" parent="qozwdUGB5FvsB3uEtykQ-22">
          <mxGeometry x="0.0146" y="1" relative="1" as="geometry">
            <mxPoint as="offset" />
          </mxGeometry>
        </mxCell>
        <mxCell id="qozwdUGB5FvsB3uEtykQ-24" value="" style="edgeStyle=orthogonalEdgeStyle;rounded=0;orthogonalLoop=1;jettySize=auto;html=1;fontColor=#000000;dashed=1;exitX=0;exitY=0.5;exitDx=0;exitDy=0;entryX=0.5;entryY=1;entryDx=0;entryDy=0;" edge="1" parent="1" source="qozwdUGB5FvsB3uEtykQ-12" target="qozwdUGB5FvsB3uEtykQ-1">
          <mxGeometry relative="1" as="geometry">
            <mxPoint x="220" y="325" as="sourcePoint" />
            <mxPoint x="314" y="325" as="targetPoint" />
          </mxGeometry>
        </mxCell>
        <mxCell id="qozwdUGB5FvsB3uEtykQ-25" value="接出成功" style="edgeLabel;html=1;align=center;verticalAlign=middle;resizable=0;points=[];fontColor=#000000;" vertex="1" connectable="0" parent="qozwdUGB5FvsB3uEtykQ-24">
          <mxGeometry x="-0.0638" y="1" relative="1" as="geometry">
            <mxPoint as="offset" />
          </mxGeometry>
        </mxCell>
        <mxCell id="qozwdUGB5FvsB3uEtykQ-27" value="中台消息" style="rounded=0;whiteSpace=wrap;html=1;" vertex="1" parent="1">
          <mxGeometry x="-90" y="645" width="110" height="50" as="geometry" />
        </mxCell>
        <mxCell id="qozwdUGB5FvsB3uEtykQ-28" value="" style="edgeStyle=orthogonalEdgeStyle;rounded=0;orthogonalLoop=1;jettySize=auto;html=1;fontColor=#000000;dashed=1;exitX=0;exitY=0.5;exitDx=0;exitDy=0;entryX=0.5;entryY=0;entryDx=0;entryDy=0;" edge="1" parent="1" source="qozwdUGB5FvsB3uEtykQ-12" target="qozwdUGB5FvsB3uEtykQ-27">
          <mxGeometry relative="1" as="geometry">
            <mxPoint x="314" y="495" as="sourcePoint" />
            <mxPoint x="-25" y="350" as="targetPoint" />
          </mxGeometry>
        </mxCell>
      </root>
    </mxGraphModel>
  </diagram>
</mxfile>
